<?xml version="1.0" encoding="UTF-8"?>
<svg width="25px" height="24px" viewBox="0 0 25 24" version="1.1" xmlns="http://www.w3.org/2000/svg" xmlns:xlink="http://www.w3.org/1999/xlink">
    <title>8E45FB01-8611-4834-7CA0-F80BAEBC853D</title>
    <defs>
        <filter id="filter-1">
            <feColorMatrix in="SourceGraphic" type="matrix" values="0 0 0 0 0.811765 0 0 0 0 0.380392 0 0 0 0 0.529412 0 0 0 1.000000 0"></feColorMatrix>
        </filter>
        <path d="M13.29579,18.7069957 C12.90519,18.3164032 12.90519,17.6837154 13.29579,17.2931229 C13.29579,17.2931229 14.72679,15.8621505 17.58879,13.0002057 C8.53119,13.0002057 4.00239,13.0002057 4.00239,13.0002057 C3.44979,13.0002057 3.00249,12.5520144 3.00249,12.000325 C3.00249,11.4477357 3.44979,11.0004443 4.00239,11.0004443 C4.00239,11.0004443 8.53119,11.0004443 17.58879,11.0004443 C14.72679,8.13849948 13.29579,6.70752707 13.29579,6.70752707 C12.90519,6.31693461 12.90519,5.68334683 13.29579,5.29275436 C13.68549,4.90306187 14.31909,4.90306187 14.70969,5.29275436 C14.70969,5.29275436 20.70999,11.2929386 20.70999,11.2929386 C20.77982,11.3629373 20.83705,11.4407258 20.88186,11.5235242 C20.88188,11.5235542 20.88189,11.5235842 20.88191,11.5236142 C20.88537,11.5300141 20.8888,11.5364939 20.89211,11.5429538 C20.893,11.5446938 20.89389,11.5464637 20.89478,11.5482037 C20.89715,11.5528836 20.89952,11.5576335 20.9018,11.5623434 C20.90368,11.5662034 20.90552,11.5700733 20.90735,11.5739632 C20.90864,11.5767032 20.90991,11.5794031 20.91117,11.5821531 C20.9139,11.5880729 20.91654,11.5940028 20.91916,11.5999827 C20.91948,11.6007127 20.9198,11.6014227 20.92011,11.6021527 C20.97306,11.7241403 21.00249,11.8587777 21.00249,12.000325 C21.00249,12.1499021 20.96955,12.2918194 20.91061,12.4193069 C20.90989,12.4208669 20.90915,12.4224369 20.90842,12.4239968 C20.90595,12.4292667 20.90347,12.4344566 20.90092,12.4396765 C20.89944,12.4427165 20.89792,12.4457364 20.8964,12.4487663 C20.89459,12.4523763 20.89277,12.4559562 20.89092,12.4595361 C20.8887,12.4638261 20.88644,12.468106 20.88416,12.4723659 C20.88278,12.4749458 20.88139,12.4775158 20.87998,12.4800857 C20.87727,12.4850356 20.87453,12.4899356 20.87173,12.4948455 C20.8707,12.4966454 20.86969,12.4984154 20.86865,12.5002154 C20.86547,12.5057252 20.86224,12.5111851 20.85894,12.516645 C20.85818,12.517905 20.85742,12.519155 20.85665,12.520415 C20.85309,12.5262549 20.84944,12.5321047 20.84575,12.5378846 C20.84526,12.5386546 20.84474,12.5394646 20.84425,12.5402246 C20.84042,12.5461845 20.83655,12.5520844 20.83258,12.5579742 C20.83195,12.5589142 20.83134,12.5598042 20.83071,12.5607342 C20.82686,12.5664041 20.82296,12.572044 20.81898,12.5776539 C20.8182,12.5787538 20.81742,12.5798338 20.81664,12.5809338 C20.81285,12.5862337 20.80904,12.5914836 20.80513,12.5967235 C20.80392,12.5983535 20.80269,12.5999634 20.80146,12.6015834 C20.79791,12.6062833 20.7943,12.6110232 20.79065,12.6156831 C20.78901,12.6177731 20.78731,12.619893 20.78565,12.621973 C20.78248,12.6259629 20.7793,12.6299529 20.77606,12.6339028 C20.77311,12.6375027 20.77008,12.6410726 20.76708,12.6446326 C20.76503,12.6470525 20.76304,12.6494625 20.76096,12.6518724 C20.75605,12.6575823 20.75107,12.6632222 20.74604,12.6688221 C20.74577,12.6691221 20.74553,12.6694021 20.74526,12.6697021 C20.73222,12.6841618 20.71879,12.6981915 20.70494,12.7118613 C20.70494,12.7118613 14.70968,18.7070056 14.70968,18.7070056 C14.51438,18.9023019 14.25833,18.99996 14.00239,18.99996 C13.74645,18.99996 13.49063,18.9023019 13.29578,18.7070056 C13.29578,18.7070056 13.29579,18.7069957 13.29579,18.7069957 Z" id="path-2"></path>
    </defs>
    <g id="null" stroke="none" stroke-width="1" fill="none" fill-rule="evenodd">
        <g id="home" transform="translate(-874.000000, -2845.000000)">
            <g id="Group-29" transform="translate(0.000000, 1898.000030)">
                <g id="Group-15" transform="translate(380.000000, 208.999970)">
                    <g id="Group-18" transform="translate(4.000000, 272.000030)" filter="url(#filter-1)">
                        <g transform="translate(416.000000, 465.999970)">
                            <g id="Group-2" transform="translate(74.392490, 0.000030)">
                                <path d="M13.29579,18.7069957 C12.90519,18.3164032 12.90519,17.6837154 13.29579,17.2931229 C13.29579,17.2931229 14.72679,15.8621505 17.58879,13.0002057 C8.53119,13.0002057 4.00239,13.0002057 4.00239,13.0002057 C3.44979,13.0002057 3.00249,12.5520144 3.00249,12.000325 C3.00249,11.4477357 3.44979,11.0004443 4.00239,11.0004443 C4.00239,11.0004443 8.53119,11.0004443 17.58879,11.0004443 C14.72679,8.13849948 13.29579,6.70752707 13.29579,6.70752707 C12.90519,6.31693461 12.90519,5.68334683 13.29579,5.29275436 C13.68549,4.90306187 14.31909,4.90306187 14.70969,5.29275436 C14.70969,5.29275436 20.70999,11.2929386 20.70999,11.2929386 C20.77982,11.3629373 20.83705,11.4407258 20.88186,11.5235242 C20.88188,11.5235542 20.88189,11.5235842 20.88191,11.5236142 C20.88537,11.5300141 20.8888,11.5364939 20.89211,11.5429538 C20.893,11.5446938 20.89389,11.5464637 20.89478,11.5482037 C20.89715,11.5528836 20.89952,11.5576335 20.9018,11.5623434 C20.90368,11.5662034 20.90552,11.5700733 20.90735,11.5739632 C20.90864,11.5767032 20.90991,11.5794031 20.91117,11.5821531 C20.9139,11.5880729 20.91654,11.5940028 20.91916,11.5999827 C20.91948,11.6007127 20.9198,11.6014227 20.92011,11.6021527 C20.97306,11.7241403 21.00249,11.8587777 21.00249,12.000325 C21.00249,12.1499021 20.96955,12.2918194 20.91061,12.4193069 C20.90989,12.4208669 20.90915,12.4224369 20.90842,12.4239968 C20.90595,12.4292667 20.90347,12.4344566 20.90092,12.4396765 C20.89944,12.4427165 20.89792,12.4457364 20.8964,12.4487663 C20.89459,12.4523763 20.89277,12.4559562 20.89092,12.4595361 C20.8887,12.4638261 20.88644,12.468106 20.88416,12.4723659 C20.88278,12.4749458 20.88139,12.4775158 20.87998,12.4800857 C20.87727,12.4850356 20.87453,12.4899356 20.87173,12.4948455 C20.8707,12.4966454 20.86969,12.4984154 20.86865,12.5002154 C20.86547,12.5057252 20.86224,12.5111851 20.85894,12.516645 C20.85818,12.517905 20.85742,12.519155 20.85665,12.520415 C20.85309,12.5262549 20.84944,12.5321047 20.84575,12.5378846 C20.84526,12.5386546 20.84474,12.5394646 20.84425,12.5402246 C20.84042,12.5461845 20.83655,12.5520844 20.83258,12.5579742 C20.83195,12.5589142 20.83134,12.5598042 20.83071,12.5607342 C20.82686,12.5664041 20.82296,12.572044 20.81898,12.5776539 C20.8182,12.5787538 20.81742,12.5798338 20.81664,12.5809338 C20.81285,12.5862337 20.80904,12.5914836 20.80513,12.5967235 C20.80392,12.5983535 20.80269,12.5999634 20.80146,12.6015834 C20.79791,12.6062833 20.7943,12.6110232 20.79065,12.6156831 C20.78901,12.6177731 20.78731,12.619893 20.78565,12.621973 C20.78248,12.6259629 20.7793,12.6299529 20.77606,12.6339028 C20.77311,12.6375027 20.77008,12.6410726 20.76708,12.6446326 C20.76503,12.6470525 20.76304,12.6494625 20.76096,12.6518724 C20.75605,12.6575823 20.75107,12.6632222 20.74604,12.6688221 C20.74577,12.6691221 20.74553,12.6694021 20.74526,12.6697021 C20.73222,12.6841618 20.71879,12.6981915 20.70494,12.7118613 C20.70494,12.7118613 14.70968,18.7070056 14.70968,18.7070056 C14.51438,18.9023019 14.25833,18.99996 14.00239,18.99996 C13.74645,18.99996 13.49063,18.9023019 13.29578,18.7070056 C13.29578,18.7070056 13.29579,18.7069957 13.29579,18.7069957 Z" id="Combined-Shape" fill="#000000"></path>
                                <g id="Mask-Group-2">
                                    <mask id="mask-3" fill="white">
                                        <use xlink:href="#path-2"></use>
                                    </mask>
                                    <use id="Combined-Shape" fill="#000000" xlink:href="#path-2"></use>
                                    <g id="🎨Color" mask="url(#mask-3)" fill="#000000">
                                        <polygon id="Rectangle" points="0.00249 24.00003 0.00249 3.00000002e-05 24.00249 3.00000002e-05 24.00249 24.00003"></polygon>
                                    </g>
                                </g>
                            </g>
                        </g>
                    </g>
                </g>
            </g>
        </g>
    </g>
</svg>