<?xml version="1.0" encoding="UTF-8"?>
<svg width="30px" height="33px" viewBox="0 0 30 33" version="1.1" xmlns="http://www.w3.org/2000/svg" xmlns:xlink="http://www.w3.org/1999/xlink">
    <title>2CD33EF4-8FAF-4F13-B3B2-0D9A7FBE0AD3</title>
    <defs>
        <filter id="filter-1">
            <feColorMatrix in="SourceGraphic" type="matrix" values="0 0 0 0 0.811765 0 0 0 0 0.380392 0 0 0 0 0.529412 0 0 0 1.000000 0"></feColorMatrix>
        </filter>
    </defs>
    <g id="null" stroke="none" stroke-width="1" fill="none" fill-rule="evenodd">
        <g id="home" transform="translate(-1490.000000, -42.000000)">
            <g id="shopping-bag-(1)" transform="translate(1490.000000, 42.000000)" filter="url(#filter-1)">
                <g>
                    <path d="M5.72332973,32.9801802 L23.7051387,32.9801802 C26.8610883,32.9801802 29.4284685,30.4128 29.4284685,27.2568505 L29.4284685,10.1477477 C29.4284685,9.58962162 28.9718198,9.13297297 28.4136937,9.13297297 L22.325045,9.13297297 L22.325045,7.61081081 C22.325045,3.41471712 18.9103279,0 14.7142342,0 C10.5181405,0 7.10342342,3.41471712 7.10342342,7.61081081 L7.10342342,9.13297297 L1.01477477,9.13297297 C0.456648649,9.13297297 0,9.58962162 0,10.1477477 L0,27.2568505 C0,30.4128 2.56738018,32.9801802 5.72332973,32.9801802 Z M9.13297297,7.61081081 C9.13297297,4.53096937 11.6343928,2.02954955 14.7142342,2.02954955 C17.7940757,2.02954955 20.2954955,4.53096937 20.2954955,7.61081081 L20.2954955,9.13297297 L9.13297297,9.13297297 L9.13297297,7.61081081 Z M2.02954955,11.1625225 L7.10342342,11.1625225 L7.10342342,13.6994595 C7.10342342,14.2575856 7.56007207,14.7142342 8.1181982,14.7142342 C8.67632432,14.7142342 9.13297297,14.2575856 9.13297297,13.6994595 L9.13297297,11.1625225 L20.2954955,11.1625225 L20.2954955,13.6994595 C20.2954955,14.2575856 20.7521441,14.7142342 21.3102703,14.7142342 C21.8683964,14.7142342 22.325045,14.2575856 22.325045,13.6994595 L22.325045,11.1625225 L27.3989189,11.1625225 L27.3989189,27.2568505 C27.3989189,29.2914739 25.7397622,30.9506306 23.7051387,30.9506306 L5.72332973,30.9506306 C3.68870631,30.9506306 2.02954955,29.2914739 2.02954955,27.2568505 L2.02954955,11.1625225 Z" id="Shape" fill="#000000" fill-rule="nonzero"></path>
                </g>
            </g>
        </g>
    </g>
</svg>