<?xml version="1.0" encoding="UTF-8"?>
<svg width="130px" height="113px" viewBox="0 0 130 113" version="1.1" xmlns="http://www.w3.org/2000/svg" xmlns:xlink="http://www.w3.org/1999/xlink">
    <title>12D26D8C-B07D-4286-8434-84913FC23E1F</title>
    <g id="null" stroke="none" stroke-width="1" fill="none" fill-rule="evenodd" opacity="0.05">
        <g id="home" transform="translate(-543.000000, -3298.000000)" fill="#8A567E">
            <g id="Group-41" transform="translate(-129.000310, 3038.000030)">
                <g id="Group-44" transform="translate(589.000000, 186.500000)">
                    <g id="Group-46" transform="translate(83.830310, 74.300000)">
                        <path d="M2.01001,112 C11.91241,72.1243267 16.86361,52.18649 16.86361,52.18649 C11.77861,50.31269 7.69711,47.16809 4.61911,42.75269 C1.54201,38.33729 0.00301,33.18479 0.00301,27.29789 C0.00301,19.26899 2.54551,12.71249 7.63051,7.62749 C12.71551,2.54249 19.13791,0 26.89951,0 C34.39291,0 40.61461,2.60909 45.56551,7.82819 C50.51641,13.04639 52.99231,19.53629 52.99231,27.29789 C52.99231,31.31189 52.52431,35.19269 51.58741,38.93939 C50.65051,42.68609 48.84421,48.43979 46.16761,56.20049 C46.16761,56.20049 39.87871,74.8003267 27.30091,112 L2.01001,112 Z" id="Path"></path>
                        <path d="M77.88091,112 C87.78331,72.1243267 92.73451,52.18649 92.73451,52.18649 C87.64951,50.31269 83.56801,47.16809 80.49001,42.75269 C77.41291,38.33729 75.87391,33.18479 75.87391,27.29789 C75.87391,19.26899 78.41641,12.71249 83.50141,7.62749 C88.58641,2.54249 95.00881,0 102.77041,0 C110.26381,0 116.48551,2.60909 121.43641,7.82819 C126.38731,13.04639 128.86321,19.53629 128.86321,27.29789 C128.86321,31.31189 128.39521,35.19269 127.45831,38.93939 C126.52141,42.68609 124.71512,48.43979 122.03851,56.20049 C122.03851,56.20049 115.74961,74.8003267 103.17181,112 L77.88091,112 Z" id="Path"></path>
                    </g>
                </g>
            </g>
        </g>
    </g>
</svg>