<?xml version="1.0" encoding="UTF-8" standalone="no"?>
<!DOCTYPE svg PUBLIC "-//W3C//DTD SVG 1.1//EN" "http://www.w3.org/Graphics/SVG/1.1/DTD/svg11.dtd">
<svg width="100%" height="100%" viewBox="0 0 1924 125" version="1.1" xmlns="http://www.w3.org/2000/svg" xmlns:xlink="http://www.w3.org/1999/xlink" xml:space="preserve" xmlns:serif="http://www.serif.com/" style="fill-rule:evenodd;clip-rule:evenodd;stroke-linejoin:round;stroke-miterlimit:2;">
    <g id="null" transform="matrix(-1,0,0,1,1923.73,0)">
        <g id="home">
            <g id="Group-18">
                <path id="Rectangle" d="M0,5.425C214.911,0.911 372.269,0.911 472.073,5.425C884.574,24.081 1221.5,57.407 1460,57.407C1785.06,57.407 1939.23,40.079 1922.5,5.425L1922.5,124.07L0,124.07L0,5.425Z" style="fill:rgb(239,225,229);"/>
                <path id="Rectangle1" serif:id="Rectangle" d="M0,35.425C149.899,6.142 329.849,-4.987 539.85,2.039C854.851,12.578 1268.62,82.438 1492,85.342C1640.92,87.277 1783.58,70.638 1920,35.425L1920,124.07L0,124.07L0,35.425Z" style="fill:rgb(245,236,239);"/>
            </g>
        </g>
    </g>
</svg>
