<?xml version="1.0" encoding="UTF-8"?>
<svg width="63px" height="63px" viewBox="0 0 63 63" version="1.1" xmlns="http://www.w3.org/2000/svg" xmlns:xlink="http://www.w3.org/1999/xlink">
    <title>2C435A50-6C61-48DA-9FB5-8C9B739DFECE</title>
    <g id="null" stroke="none" stroke-width="1" fill="none" fill-rule="evenodd">
        <g id="home" transform="translate(-640.000000, -6183.000000)" fill="#000000" fill-rule="nonzero">
            <g id="Group-22" transform="translate(0.000000, 5889.000000)">
                <g id="Group-12" transform="translate(640.000000, 294.424670)">
                    <g id="facebook-(7)" transform="translate(-0.000000, 0.000000)">
                        <path d="M40.5066667,22.420413 L35.1944498,22.420413 L35.1944498,20.2466092 C35.1944498,19.4219493 35.5989773,19.3528807 35.9780609,19.3528807 L40.3772155,19.3528807 C40.8734713,19.3528807 41.2757662,18.9505858 41.2757662,18.45433 L41.2757662,11.7974618 C41.2757662,11.301206 40.8734713,10.8989111 40.3772155,10.8989111 L34.4251855,10.8989111 C31.8162285,10.8989111 29.3429077,11.6605976 27.6418913,13.4982686 L28.8253725,14.8922353 C29.8846889,13.654242 31.6126469,12.6960126 34.4251855,12.6960126 L39.4786647,12.6960126 L39.4786647,17.5557792 L35.9780609,17.5557792 C34.4102696,17.5557792 33.3973483,18.6119957 33.3973483,20.2466092 L33.3973483,23.3189638 C33.3973483,23.8152196 33.7996432,24.2175145 34.295899,24.2175145 L39.5292531,24.2175145 L39.0337773,30.1014493 L34.0371014,30.1014493 C33.5408456,30.1014493 33.1385507,30.5037441 33.1385507,31 L33.1385507,49.3039874 L27.1721739,49.3039874 L27.1721739,31 C27.1721739,30.5037441 26.7698791,30.1014493 26.2736232,30.1014493 L23.2904348,30.1014493 L23.2904348,24.2175145 L26.2736232,24.2175145 C26.7698791,24.2175145 27.1721739,23.8152196 27.1721739,23.3189638 L27.1721739,19.8625386 C27.1721739,19.0008884 27.3099517,17.1401396 28.3498744,15.5305957 L26.70033,14.7685048 C25.9256894,16.0763454 25.4433623,17.7534454 25.3750725,19.8625386 L25.3750725,22.420413 L22.3918841,22.420413 C21.8956282,22.420413 21.4933333,22.8227079 21.4933333,23.3189638 L21.4933333,31 C21.4933333,31.4962559 21.8956282,31.8985507 22.3918841,31.8985507 L25.3750725,31.8985507 L25.3750725,50.2025382 C25.3750725,50.698794 25.7773673,51.1010889 26.2736232,51.1010889 L34.0371014,51.1010889 C34.5333573,51.1010889 34.9356522,50.698794 34.9356522,50.2025382 L34.9356522,31.8985507 L39.8598599,31.8985507 C40.3268989,31.8985628 40.7160811,31.5407807 40.7552657,31.0753884 L41.4020126,23.3943821 C41.4231146,23.1438544 41.338292,22.8959445 41.1681426,22.7108538 C40.9979932,22.525763 40.7580815,22.4204226 40.5066667,22.420413 L40.5066667,22.420413 Z" id="Path"></path>
                        <path d="M55.0471343,8.62244783 L56.2979918,7.33085604 C55.8838997,6.89755491 55.4537585,6.4801132 55.0075681,6.07853092 L53.7580135,7.37144058 C54.2050225,7.77069662 54.6347295,8.18769903 55.0471343,8.62244783 L55.0471343,8.62244783 Z" id="Path"></path>
                        <path d="M57.1785565,8.30603816 L55.7708271,9.42344589 C59.1173533,13.2958882 60.9584841,18.2433555 60.9576662,23.3614652 L60.9576662,38.6384899 C60.9576662,50.5195618 51.1837406,60.1854217 39.1698628,60.1854217 L23.7288227,60.1854217 C15.6253003,60.1975722 8.18126082,55.7217489 4.39184638,48.5588193 L2.83927053,49.4656217 C6.9522212,57.1796724 14.9868086,61.9939517 23.7288227,61.9825435 L39.1698778,61.9825435 C52.1745874,61.9825435 62.7547832,51.5103937 62.7547832,38.6384899 L62.7547832,23.3615101 C62.7559929,17.8377101 60.7776689,12.4963553 57.1785565,8.30603816 Z" id="Path"></path>
                        <path d="M1.94086957,38.6384899 L1.94086957,23.3615101 C1.94086957,11.4804382 11.7149449,1.81457826 23.7288227,1.81457826 L39.1698778,1.81457826 C44.1811755,1.80670372 49.0426616,3.52291333 52.9383705,6.67515362 L54.0067174,5.22984976 C49.8015635,1.84885783 44.5656503,0.00941405338 39.1698778,0.0174504182 L23.7288227,0.0174504182 C10.7239633,0.0174504182 0.143757145,10.4896063 0.143757145,23.3615101 L0.143757145,38.6384899 C0.14051573,41.9692172 0.860464234,45.2609403 2.25386473,48.286199 L3.91618357,47.5984783 C2.61223247,44.7915973 1.93803799,41.7334634 1.94086957,38.6384899 L1.94086957,38.6384899 Z" id="Path"></path>
                    </g>
                </g>
            </g>
        </g>
    </g>
</svg>