<?xml version="1.0" encoding="UTF-8"?>
<svg width="63px" height="63px" viewBox="0 0 63 63" version="1.1" xmlns="http://www.w3.org/2000/svg" xmlns:xlink="http://www.w3.org/1999/xlink">
    <title>079BDFF9-93CA-499E-86F7-63587C9770AA</title>
    <g id="null" stroke="none" stroke-width="1" fill="none" fill-rule="evenodd">
        <g id="home" transform="translate(-1079.000000, -6183.000000)" fill="#000000" fill-rule="nonzero">
            <g id="Group-22" transform="translate(0.000000, 5889.000000)">
                <g id="Group-12" transform="translate(640.000000, 294.424670)">
                    <g id="Group-8" transform="translate(439.000000, 0.000000)">
                        <g id="instagram-(2)" transform="translate(-0.000000, 0.000000)">
                            <path d="M46.4583222,15.3798188 L39.8594406,15.3798188 C39.3631847,15.3798188 38.9608899,15.7821137 38.9608899,16.2783696 L38.9608899,22.8071942 C38.9608899,23.3034501 39.3631847,23.7057449 39.8594406,23.7057449 L46.4583222,23.7057449 C46.9545781,23.7057449 47.3568729,23.3034501 47.3568729,22.8071942 L47.3568729,16.2783696 C47.3568729,15.7821137 46.9545781,15.3798188 46.4583222,15.3798188 L46.4583222,15.3798188 Z M45.5597715,21.9086435 L40.7579913,21.9086435 L40.7579913,17.1769203 L45.5597715,17.1769203 L45.5597715,21.9086435 Z" id="Shape"></path>
                            <path d="M31.4492754,23.3165377 C27.1656594,23.3165377 23.6930604,26.7565643 23.6930604,31.00003 C23.6930604,35.2434957 27.1656594,38.6835372 31.4492754,38.6835372 C35.7328913,38.6835372 39.2055053,35.2435106 39.2055053,31 C39.2055053,26.7564894 35.7329812,23.3165377 31.4492754,23.3165377 Z M31.4492754,36.8864357 C28.1635749,36.8864357 25.4902367,34.2458348 25.4902367,31.0000749 C25.4902367,27.754315 28.1635749,25.1136391 31.4492754,25.1136391 C34.7349758,25.1136391 37.4084638,27.7543 37.4084638,31.0000749 C37.4084638,34.2458498 34.7352005,36.8864357 31.4492754,36.8864357 Z" id="Shape"></path>
                            <path d="M47.1055483,26.132745 L41.2664662,26.132745 C40.9665534,26.1324711 40.686344,26.2820939 40.5197386,26.5314739 C40.3531332,26.7808539 40.3221751,27.0969961 40.4372386,27.3739585 C40.9159428,28.5249456 41.1618879,29.7593639 41.1608715,31.0059304 C41.1608715,36.2987986 36.8042783,40.6048633 31.4493952,40.6048633 C26.0945121,40.6048633 21.7379039,36.2987986 21.7379039,31.0059304 C21.7369056,29.759351 21.9829028,28.5249265 22.4616865,27.3739585 C22.57675,27.0969961 22.5457919,26.7808539 22.3791865,26.5314739 C22.2125811,26.2820939 21.9323717,26.1324711 21.6324589,26.132745 L15.7930024,26.132745 C15.2967466,26.132745 14.8944517,26.5350403 14.8944517,27.0312961 L14.8944517,42.7772744 C14.908353,45.3336596 16.9888951,47.3964014 19.5453053,47.3883608 L30.6840097,47.3883608 L30.6840097,45.5912357 L19.5453053,45.5912357 C17.9809387,45.600429 16.7043253,44.3416159 16.6915531,42.7772744 L16.6915531,27.9298469 L20.3569812,27.9298469 L20.3674643,27.9270314 C20.0837839,28.9287155 19.9401499,29.9648515 19.9406527,31.0059304 C19.9406527,37.299799 25.0931372,42.4019647 31.4492454,42.4019647 C37.8053536,42.4019647 42.9578232,37.299799 42.9578232,31.0059304 C42.9583335,29.9648756 42.8146992,28.9287633 42.5310116,27.9271063 L42.5412551,27.9298469 L46.2068329,27.9298469 L46.2068329,42.7772744 C46.1940032,44.3415916 44.9174238,45.6003712 43.3530807,45.5912357 L31.8820773,45.5912357 L31.8788725,47.3883608 L43.3532304,47.3883608 C45.9096407,47.3964014 47.9901828,45.3336596 48.0040841,42.7772744 L48.0040841,27.0312961 C48.0040841,26.5350461 47.6017983,26.132745 47.1055483,26.132745 L47.1055483,26.132745 Z" id="Path"></path>
                            <path d="M43.3532454,10.8989111 L19.5453053,10.8989111 C14.9117787,10.8989111 11.142014,14.6328536 11.142014,19.222486 L11.142014,28.8135266 L12.9391155,28.8135266 L12.9391155,19.2224261 C12.9391155,15.6237304 15.9027005,12.6959527 19.5453053,12.6959527 L43.3532454,12.6959527 C46.9958502,12.6959527 49.9594353,15.6237304 49.9594353,19.2224261 L49.9594353,42.777499 C49.9594353,46.3761947 46.9958502,49.3039725 43.3532454,49.3039725 L19.5453053,49.3039725 C15.9027005,49.3039725 12.9391155,46.3761947 12.9391155,42.777499 L12.9391155,30.0115942 L11.142014,30.0115942 L11.142014,42.7774841 C11.142014,47.3671314 14.9117188,51.1010589 19.5453053,51.1010589 L43.3532454,51.1010589 C47.986772,51.1010589 51.7565367,47.3671164 51.7565367,42.7774841 L51.7565367,19.2224261 C51.7565367,14.6328986 47.9868319,10.8989111 43.3532454,10.8989111 Z" id="Path"></path>
                            <path d="M55.0471343,8.62244783 L56.2979918,7.33085604 C55.8838997,6.89755491 55.4537585,6.4801132 55.0075681,6.07853092 L53.7580135,7.37144058 C54.2050225,7.77069662 54.6347295,8.18769903 55.0471343,8.62244783 L55.0471343,8.62244783 Z" id="Path"></path>
                            <path d="M57.1785565,8.30603816 L55.7708271,9.42344589 C59.1173533,13.2958882 60.9584841,18.2433555 60.9576662,23.3614652 L60.9576662,38.6384899 C60.9576662,50.5195618 51.1837406,60.1854217 39.1698628,60.1854217 L23.7288227,60.1854217 C15.6253003,60.1975722 8.18126082,55.7217489 4.39184638,48.5588193 L2.83927053,49.4656217 C6.9522212,57.1796724 14.9868086,61.9939517 23.7288227,61.9825435 L39.1698778,61.9825435 C52.1745874,61.9825435 62.7547832,51.5103937 62.7547832,38.6384899 L62.7547832,23.3615101 C62.7559929,17.8377101 60.7776689,12.4963553 57.1785565,8.30603816 Z" id="Path"></path>
                            <path d="M1.94086957,38.6384899 L1.94086957,23.3615101 C1.94086957,11.4804382 11.7149449,1.81457826 23.7288227,1.81457826 L39.1698778,1.81457826 C44.1811755,1.80670372 49.0426616,3.52291333 52.9383705,6.67515362 L54.0067174,5.22984976 C49.8015635,1.84885783 44.5656503,0.00941405338 39.1698778,0.0174504182 L23.7288227,0.0174504182 C10.7239633,0.0174504182 0.143757145,10.4896063 0.143757145,23.3615101 L0.143757145,38.6384899 C0.14051573,41.9692172 0.860464234,45.2609403 2.25386473,48.286199 L3.91618357,47.5984783 C2.61223247,44.7915973 1.93803799,41.7334634 1.94086957,38.6384899 L1.94086957,38.6384899 Z" id="Path"></path>
                        </g>
                    </g>
                </g>
            </g>
        </g>
    </g>
</svg>